<?xml version="1.0" encoding="utf-8"?><svg xmlns="http://www.w3.org/2000/svg" xmlns:xlink="http://www.w3.org/1999/xlink"><symbol fill="none" viewBox="0 0 24 24" id="book-open" xmlns="http://www.w3.org/2000/svg"><path d="m12 21-.1-.15c-.695-1.042-1.042-1.563-1.5-1.94a4 4 0 0 0-1.378-.737C8.453 18 7.827 18 6.575 18H5.2c-1.12 0-1.68 0-2.108-.218a2 2 0 0 1-.874-.874C2 16.48 2 15.92 2 14.8V6.2c0-1.12 0-1.68.218-2.108a2 2 0 0 1 .874-.874C3.52 3 4.08 3 5.2 3h.4c2.24 0 3.36 0 4.216.436a4 4 0 0 1 1.748 1.748C12 6.04 12 7.16 12 9.4M12 21V9.4M12 21l.1-.15c.695-1.042 1.042-1.563 1.5-1.94a3.999 3.999 0 0 1 1.378-.737C15.547 18 16.173 18 17.425 18H18.8c1.12 0 1.68 0 2.108-.218a2 2 0 0 0 .874-.874C22 16.48 22 15.92 22 14.8V6.2c0-1.12 0-1.68-.218-2.108a2 2 0 0 0-.874-.874C20.48 3 19.92 3 18.8 3h-.4c-2.24 0-3.36 0-4.216.436a4 4 0 0 0-1.748 1.748C12 6.04 12 7.16 12 9.4" stroke="currentColor" stroke-width="2" stroke-linecap="round" stroke-linejoin="round"/></symbol><symbol fill="none" viewBox="0 0 16 16" id="chevron-down" xmlns="http://www.w3.org/2000/svg"><path fill-rule="evenodd" clip-rule="evenodd" d="m13.411 6.594-.753.659-4 3.5-.658.576-.659-.577-4-3.5-.752-.658 1.317-1.505.752.658L8 8.671l3.341-2.924.753-.658 1.317 1.505Z" fill="currentColor"/></symbol><symbol fill="none" viewBox="0 0 16 16" id="chevron-up" xmlns="http://www.w3.org/2000/svg"><path fill-rule="evenodd" clip-rule="evenodd" d="m2.589 9.406.753-.659 4-3.5L8 4.671l.659.576 4 3.5.752.659-1.317 1.505-.752-.658L8 7.329 4.66 10.253l-.753.658-1.317-1.505Z" fill="currentColor"/></symbol><symbol fill="none" viewBox="0 0 16 16" id="cross" xmlns="http://www.w3.org/2000/svg"><g clip-path="url(#da)"><path fill-rule="evenodd" clip-rule="evenodd" d="M14.708 2.707 15.415 2 14.001.586l-.707.707L8 6.586 2.708 1.293 2.001.586.587 2l.707.707L6.587 8l-5.293 5.293L.587 14 2 15.414l.707-.707 5.293-5.293 5.293 5.293.707.707L15.415 14l-.707-.707L9.415 8l5.293-5.293Z" fill="currentColor"/></g><defs><clipPath id="da"><path fill="currentColor" d="M0 0h16v16H0z"/></clipPath></defs></symbol></svg>