<?xml version="1.0" encoding="utf-8"?><svg xmlns="http://www.w3.org/2000/svg" xmlns:xlink="http://www.w3.org/1999/xlink"><symbol fill="none" viewBox="0 0 24 24" id="book-open" xmlns="http://www.w3.org/2000/svg"><path d="m12 21-.1-.15c-.695-1.042-1.042-1.563-1.5-1.94a4 4 0 0 0-1.378-.737C8.453 18 7.827 18 6.575 18H5.2c-1.12 0-1.68 0-2.108-.218a2 2 0 0 1-.874-.874C2 16.48 2 15.92 2 14.8V6.2c0-1.12 0-1.68.218-2.108a2 2 0 0 1 .874-.874C3.52 3 4.08 3 5.2 3h.4c2.24 0 3.36 0 4.216.436a4 4 0 0 1 1.748 1.748C12 6.04 12 7.16 12 9.4M12 21V9.4M12 21l.1-.15c.695-1.042 1.042-1.563 1.5-1.94a3.999 3.999 0 0 1 1.378-.737C15.547 18 16.173 18 17.425 18H18.8c1.12 0 1.68 0 2.108-.218a2 2 0 0 0 .874-.874C22 16.48 22 15.92 22 14.8V6.2c0-1.12 0-1.68-.218-2.108a2 2 0 0 0-.874-.874C20.48 3 19.92 3 18.8 3h-.4c-2.24 0-3.36 0-4.216.436a4 4 0 0 0-1.748 1.748C12 6.04 12 7.16 12 9.4" stroke="currentColor" stroke-width="2" stroke-linecap="round" stroke-linejoin="round"/></symbol><symbol fill="none" viewBox="0 0 16 16" id="chevron-down" xmlns="http://www.w3.org/2000/svg"><path fill-rule="evenodd" clip-rule="evenodd" d="m13.411 6.594-.753.659-4 3.5-.658.576-.659-.577-4-3.5-.752-.658 1.317-1.505.752.658L8 8.671l3.341-2.924.753-.658 1.317 1.505Z" fill="currentColor"/></symbol><symbol fill="none" viewBox="0 0 16 16" id="chevron-up" xmlns="http://www.w3.org/2000/svg"><path fill-rule="evenodd" clip-rule="evenodd" d="m2.589 9.406.753-.659 4-3.5L8 4.671l.659.576 4 3.5.752.659-1.317 1.505-.752-.658L8 7.329 4.66 10.253l-.753.658-1.317-1.505Z" fill="currentColor"/></symbol><symbol fill="none" viewBox="0 0 16 16" id="cross" xmlns="http://www.w3.org/2000/svg"><g clip-path="url(#da)"><path fill-rule="evenodd" clip-rule="evenodd" d="M14.708 2.707 15.415 2 14.001.586l-.707.707L8 6.586 2.708 1.293 2.001.586.587 2l.707.707L6.587 8l-5.293 5.293L.587 14 2 15.414l.707-.707 5.293-5.293 5.293 5.293.707.707L15.415 14l-.707-.707L9.415 8l5.293-5.293Z" fill="currentColor"/></g><defs><clipPath id="da"><path fill="currentColor" d="M0 0h16v16H0z"/></clipPath></defs></symbol><symbol style="enable-background:new 0 0 401.994 401.994" xml:space="preserve" viewBox="0 0 401.994 401.994" id="plus" xmlns="http://www.w3.org/2000/svg"><path fill="currentColor" d="M394 154.175c-5.331-5.33-11.806-7.994-19.417-7.994H255.811V27.406c0-7.611-2.666-14.084-7.994-19.414C242.488 2.666 236.02 0 228.398 0h-54.812c-7.612 0-14.084 2.663-19.414 7.993-5.33 5.33-7.994 11.803-7.994 19.414v118.775H27.407c-7.611 0-14.084 2.664-19.414 7.994S0 165.973 0 173.589v54.819c0 7.618 2.662 14.086 7.992 19.411 5.33 5.332 11.803 7.994 19.414 7.994h118.771V374.59c0 7.611 2.664 14.089 7.994 19.417 5.33 5.325 11.802 7.987 19.414 7.987h54.816c7.617 0 14.086-2.662 19.417-7.987 5.332-5.331 7.994-11.806 7.994-19.417V255.813h118.77c7.618 0 14.089-2.662 19.417-7.994 5.329-5.325 7.994-11.793 7.994-19.411v-54.819c-.002-7.616-2.661-14.087-7.993-19.414z"/></symbol></svg>